<svg width="46.529602" height="40.968750" viewBox="0 0 46.5296 40.9688" fill="none" xmlns="http://www.w3.org/2000/svg" xmlns:xlink="http://www.w3.org/1999/xlink">
	<desc>
			Created with Pixso.
	</desc>
	<defs/>
	<path id="S." d="M7.48 22.5Q9.79 23.48 12.6 24.45L15.29 25.34Q17.15 25.98 18.17 26.65Q18.64 26.96 18.89 27.39Q19.2 27.91 19.2 28.6Q19.2 28.9 19.13 29.18Q18.9 30.11 17.92 30.85Q16.64 31.81 13.5 31.81Q10.42 31.81 7.82 30.79Q5.25 29.76 3.45 28.35Q2.17 29.06 1.07 30.37Q0.73 30.79 0.49 31.27Q0 32.28 0 33.53Q0 34.6 0.37 35.52Q0.62 36.14 1.04 36.7Q2.1 38.07 4 39.01Q5.89 39.93 8.4 40.42Q10.93 40.9 13.89 40.9Q22.2 40.9 26.48 37.54Q28.66 35.83 29.73 33.6Q30.78 31.41 30.78 28.73Q30.78 25.01 29.07 22.43Q28.42 21.46 27.54 20.65Q24.31 17.67 18.29 15.75L14.9 14.65Q13.25 14.14 12.4 13.54Q11.93 13.19 11.72 12.73Q11.57 12.38 11.57 11.96Q11.57 11.65 11.66 11.36Q11.92 10.54 12.92 9.95Q14.26 9.15 17.15 9.15Q19.96 9.15 22.32 9.82Q24.7 10.5 26.1 11.39Q26.39 11.17 26.65 10.93Q27.4 10.25 27.96 9.37Q27.99 9.33 28.02 9.28Q28.73 8.12 28.73 6.53Q28.73 5.44 28.32 4.54Q28.1 4.06 27.76 3.62Q26.81 2.37 25.1 1.57Q23.42 0.76 21.04 0.39Q18.68 0 15.93 0Q8.37 0 4.18 3.26Q2.22 4.79 1.17 6.8Q0 9.08 0 11.96Q0 14.78 0.92 16.73Q1.37 17.67 1.99 18.49Q2.65 19.36 3.51 20.09Q5.18 21.5 7.48 22.5ZM34.88 31.43Q34.1 32.85 34.1 34.68Q34.1 36.5 34.86 37.91Q35.22 38.59 35.76 39.17Q36.19 39.63 36.71 39.98Q38.18 40.96 40.31 40.96Q42.48 40.96 43.95 39.95Q44.44 39.61 44.85 39.17Q45.41 38.57 45.78 37.87Q46.52 36.48 46.52 34.68Q46.52 32.87 45.77 31.47Q45.4 30.8 44.85 30.21Q44.44 29.77 43.95 29.43Q42.48 28.42 40.31 28.42Q38.18 28.42 36.71 29.4Q36.19 29.75 35.76 30.21Q35.23 30.78 34.88 31.43Z" fill="#FFFFFF" fill-opacity="1.000000" fill-rule="evenodd"/>
</svg>
