<svg width="96.100586" height="41.500000" viewBox="0 0 96.1006 41.5" fill="none" xmlns="http://www.w3.org/2000/svg" xmlns:xlink="http://www.w3.org/1999/xlink">
	<desc>
			Created with Pixso.
	</desc>
	<defs/>
	<rect id="Rectangle 9" x="57.100586" y="40.500000" rx="19.000000" width="39.500000" height="38.000000" transform="rotate(-90 57.100586 40.500000)" stroke="#000000" stroke-opacity="1.000000" stroke-width="2.000000"/>
	<path id="Vector" d="M83.7 20.21L79.05 15.39C78.76 15.09 78.3 15.09 78.02 15.39C77.73 15.68 77.73 16.16 78.02 16.45L81.43 19.99L69.01 19.99C68.61 19.99 68.28 20.33 68.28 20.74C68.28 21.16 68.61 21.5 69.01 21.5L81.43 21.5L78.02 25.04C77.73 25.33 77.73 25.81 78.02 26.1C78.16 26.25 78.35 26.32 78.53 26.32C78.72 26.32 78.9 26.25 79.05 26.1L83.7 21.28C83.98 20.98 83.98 20.51 83.7 20.21Z" fill="#000000" fill-opacity="1.000000" fill-rule="nonzero"/>
	<path id="Vector" d="" fill="#000000" fill-opacity="1.000000" fill-rule="evenodd"/>
	<rect id="Rectangle 9" x="39.000000" y="1.000000" rx="19.000000" width="39.500000" height="38.000000" transform="rotate(90 39.000000 1.000000)" stroke="#000000" stroke-opacity="1.000000" stroke-width="2.000000"/>
	<path id="Vector" d="M12.39 21.28L17.04 26.1C17.33 26.4 17.79 26.4 18.07 26.1C18.36 25.81 18.36 25.33 18.07 25.04L14.66 21.5L27.08 21.5C27.48 21.5 27.81 21.16 27.81 20.75C27.81 20.33 27.48 19.99 27.08 19.99L14.66 19.99L18.07 16.45C18.36 16.16 18.36 15.68 18.07 15.39C17.93 15.24 17.74 15.17 17.56 15.17C17.37 15.17 17.19 15.24 17.04 15.39L12.39 20.21C12.11 20.51 12.11 20.98 12.39 21.28Z" fill="#000000" fill-opacity="1.000000" fill-rule="nonzero"/>
	<path id="Vector" d="" fill="#000000" fill-opacity="1.000000" fill-rule="evenodd"/>
</svg>
